<svg width="1.5em" viewBox="0 0 76 76" fill="none" xmlns="http://www.w3.org/2000/svg">
<path d="M72.4228 54.0915H58.8912C62.3364 49.6338 64.4036 44.0654 64.4036 38C64.4036 31.9346 62.3364 26.3515 58.8912 21.8938H72.4228C74.7099 26.79 76 32.2415 76 38C76 43.7585 74.7099 49.21 72.4228 54.0915ZM38 54.0915C29.1011 54.0915 21.9028 46.8862 21.9028 37.9854C21.9028 29.0992 29.1157 21.8792 38 21.8792C46.8989 21.8792 54.0972 29.0846 54.0972 37.9854C54.0972 46.8862 46.8989 54.0915 38 54.0915ZM11.5965 38C11.5965 52.5862 23.4128 64.41 38 64.41C41.9144 64.41 45.6088 63.5331 48.9514 62.0131V74.3923C45.4769 75.43 41.8117 76 38 76C17.0208 76 0 58.9877 0 38C0 17.0123 17.0208 0 38 0C41.8117 0 45.4769 0.57 48.9514 1.60769V13.9869C45.6088 12.4523 41.9144 11.59 38 11.59C23.4128 11.59 11.5965 23.4138 11.5965 38Z" fill="#181817"/>
</svg>
